# xmcd
#
# Track frame offsets:
#	150
#	61780
#	89737
#	106867
#	132407
#	160515
# Disc length: 2413 seconds
# Revision: 1
# Processed by: cddbd v1.5.2PL0 Copyright (c) Steve Scherf et al.
#
# Submitted via: libkcddb 0.31
#
DISCID=45096b06
DTITLE=Ian Carr with Nucleus - Belladonna
DYEAR=1972
DGENRE=Jazz
TTITLE0=Belladonna
TTITLE1=Summer Rain
TTITLE2=Remadione
TTITLE3=Mayday
TTITLE4=Suspension
TTITLE5=Hector's House
EXTD=
EXTT0=
EXTT1=
EXTT2=
EXTT3=
EXTT4=
EXTT5=
PLAYORDER=
